<svg width="27" height="32" viewBox="0 0 27 32" fill="none" xmlns="http://www.w3.org/2000/svg">
<path d="M26.995 16.3213L26.9904 16.3215V15.9757C26.9904 14.6045 25.9016 13.4928 24.5585 13.4928C23.2154 13.4928 22.1265 14.6045 22.1265 15.9757V13.2445C22.1265 11.8733 21.0376 10.7616 19.6945 10.7616C18.3514 10.7616 17.2626 11.8733 17.2626 13.2445V10.7616C17.2626 9.39032 16.0926 8.27863 14.7495 8.27863C13.4064 8.27863 12.2423 9.47309 12.2423 10.8443L12.2365 2.81618C12.2365 1.44494 11.1476 0.333252 9.80452 0.333252C8.46143 0.333252 7.37255 1.44494 7.37255 2.81618V18.9139C7.37255 18.9139 4.88449 11.2858 1.38391 13.1031C0.160144 13.7384 -0.351705 15.2462 0.256612 16.5031L4.78186 25.8528C4.78186 25.8528 7.57895 31.4657 12.457 31.4657H18.9422C23.4193 31.4657 27 27.7602 27 23.1893L26.995 16.3213Z" fill="#BC2E3E"/>
</svg>
